# xmcd
#
# Track frame offsets: 
#        150
#        18143
#        35386
#        50844
#        65911
#        80064
#        97246
#        120394
#        137559
#        149584
#        171259
#        185904
#
# Disc length: 2695 seconds
#
# Revision: 0
# Processed by: cddbd v1.5.2PL0 Copyright (c) Steve Scherf et al.
# Submitted via: ExactAudioCopy v0.99pb5
#
DISCID=b70a850c
DTITLE=Hunter Hayes - Hunter Hayes
DYEAR=2011
DGENRE=Country
TTITLE0=Storm Warning
TTITLE1=Wanted
TTITLE2=If You Told Me To
TTITLE3=Love Makes Me
TTITLE4=Faith To Fall Back On
TTITLE5=Somebody's Heartbreak
TTITLE6=Rainy Season
TTITLE7=Cry With You
TTITLE8=Everybody's Got Somebody But Me
TTITLE9=What You Gonna Do
TTITLE10=More Than I Should
TTITLE11=All You Ever
EXTD=
EXTT0=
EXTT1=
EXTT2=
EXTT3=
EXTT4=
EXTT5=
EXTT6=
EXTT7=
EXTT8=
EXTT9=
EXTT10=
EXTT11=
PLAYORDER=
